<svg xmlns="http://www.w3.org/2000/svg" width="300" height="264.444" viewBox="0 0 300 264.444"><g fill-rule="evenodd" clip-rule="evenodd" fill="#B5B5B5"><path d="M149.998 10.018c-67.491 0-122.203 54.712-122.203 122.204s54.712 122.205 122.203 122.205c67.492 0 122.207-54.713 122.207-122.205S217.49 10.018 149.998 10.018zm.069 177.809h-19.573v-49.076l-39.543 49.076H64.633l36.502-43.045L62.65 77.314h87.417v110.513zm64.425-.068l-26.648-51.838-15.869 18.461v33.377h-19.573V77.305h19.573v49.049l39.545-49.049h26.314l-36.501 43.021 38.485 67.433h-25.326z"/><path d="M114.624 129.18l15.87-18.47V96.966H98.072z"/></g></svg>